<mxfile host="app.diagrams.net" agent="Mozilla/5.0 (Windows NT 10.0; Win64; x64) AppleWebKit/537.36 (KHTML, like Gecko) Chrome/133.0.0.0 Safari/537.36" version="26.0.15">
  <diagram name="Страница — 1" id="T3bjwXwqdDUt82ZnAAJP">
    <mxGraphModel dx="1909" dy="1535" grid="0" gridSize="10" guides="1" tooltips="1" connect="1" arrows="1" fold="1" page="0" pageScale="1" pageWidth="690" pageHeight="980" math="0" shadow="0">
      <root>
        <mxCell id="0" />
        <mxCell id="1" parent="0" />
        <mxCell id="x61N2MSRTouaJFTVbICT-13" style="edgeStyle=none;curved=1;rounded=0;orthogonalLoop=1;jettySize=auto;html=1;exitX=0.5;exitY=1;exitDx=0;exitDy=0;exitPerimeter=0;fontSize=12;startSize=8;endSize=8;" edge="1" parent="1" target="x61N2MSRTouaJFTVbICT-9">
          <mxGeometry relative="1" as="geometry">
            <mxPoint x="232.5" y="-39" as="sourcePoint" />
          </mxGeometry>
        </mxCell>
        <mxCell id="x61N2MSRTouaJFTVbICT-5" value="Совет Федерации одобрил закон?" style="strokeWidth=2;html=1;shape=mxgraph.flowchart.decision;whiteSpace=wrap;" vertex="1" parent="1">
          <mxGeometry x="160.5" y="231" width="144" height="94" as="geometry" />
        </mxCell>
        <mxCell id="x61N2MSRTouaJFTVbICT-6" value="Закон возвращается в Госдуму" style="rounded=1;whiteSpace=wrap;html=1;absoluteArcSize=1;arcSize=14;strokeWidth=2;" vertex="1" parent="1">
          <mxGeometry x="320" y="365" width="118" height="61" as="geometry" />
        </mxCell>
        <mxCell id="x61N2MSRTouaJFTVbICT-8" value="Передача закона в Совет Федерации" style="rounded=1;whiteSpace=wrap;html=1;absoluteArcSize=1;arcSize=14;strokeWidth=2;" vertex="1" parent="1">
          <mxGeometry x="173.5" y="124" width="118" height="74" as="geometry" />
        </mxCell>
        <mxCell id="x61N2MSRTouaJFTVbICT-9" value="Госдума принимает новый закон&amp;nbsp;" style="rounded=1;whiteSpace=wrap;html=1;absoluteArcSize=1;arcSize=14;strokeWidth=2;" vertex="1" parent="1">
          <mxGeometry x="175" y="6" width="118" height="74" as="geometry" />
        </mxCell>
        <mxCell id="x61N2MSRTouaJFTVbICT-28" style="edgeStyle=none;curved=0;rounded=0;orthogonalLoop=1;jettySize=auto;html=1;exitX=0;exitY=0.5;exitDx=0;exitDy=0;exitPerimeter=0;entryX=0.5;entryY=0;entryDx=0;entryDy=0;fontSize=12;startSize=8;endSize=8;" edge="1" parent="1" source="x61N2MSRTouaJFTVbICT-10" target="x61N2MSRTouaJFTVbICT-11">
          <mxGeometry relative="1" as="geometry">
            <Array as="points">
              <mxPoint x="239" y="534" />
              <mxPoint x="239" y="601" />
              <mxPoint x="395" y="601" />
            </Array>
          </mxGeometry>
        </mxCell>
        <mxCell id="x61N2MSRTouaJFTVbICT-33" value="НЕТ" style="edgeLabel;html=1;align=center;verticalAlign=middle;resizable=0;points=[];fontSize=12;" vertex="1" connectable="0" parent="x61N2MSRTouaJFTVbICT-28">
          <mxGeometry x="-0.74" y="3" relative="1" as="geometry">
            <mxPoint x="12" as="offset" />
          </mxGeometry>
        </mxCell>
        <mxCell id="x61N2MSRTouaJFTVbICT-31" style="edgeStyle=none;curved=0;rounded=0;orthogonalLoop=1;jettySize=auto;html=1;exitX=1;exitY=0.5;exitDx=0;exitDy=0;exitPerimeter=0;fontSize=12;startSize=8;endSize=8;" edge="1" parent="1" source="x61N2MSRTouaJFTVbICT-10" target="x61N2MSRTouaJFTVbICT-30">
          <mxGeometry relative="1" as="geometry">
            <Array as="points">
              <mxPoint x="597" y="534" />
              <mxPoint x="597" y="214" />
            </Array>
          </mxGeometry>
        </mxCell>
        <mxCell id="x61N2MSRTouaJFTVbICT-32" value="ДА" style="edgeLabel;html=1;align=center;verticalAlign=middle;resizable=0;points=[];fontSize=12;" vertex="1" connectable="0" parent="x61N2MSRTouaJFTVbICT-31">
          <mxGeometry x="-0.8892" y="5" relative="1" as="geometry">
            <mxPoint x="12" y="5" as="offset" />
          </mxGeometry>
        </mxCell>
        <mxCell id="x61N2MSRTouaJFTVbICT-10" value="Госдума&amp;nbsp;&lt;div&gt;соглашается изменить закон?&lt;/div&gt;" style="strokeWidth=2;html=1;shape=mxgraph.flowchart.decision;whiteSpace=wrap;" vertex="1" parent="1">
          <mxGeometry x="300.75" y="487" width="156.5" height="94" as="geometry" />
        </mxCell>
        <mxCell id="x61N2MSRTouaJFTVbICT-11" value="Проведение повторного голосования" style="rounded=1;whiteSpace=wrap;html=1;absoluteArcSize=1;arcSize=14;strokeWidth=2;" vertex="1" parent="1">
          <mxGeometry x="322.5" y="643" width="144.25" height="70" as="geometry" />
        </mxCell>
        <mxCell id="x61N2MSRTouaJFTVbICT-36" style="edgeStyle=none;curved=0;rounded=0;orthogonalLoop=1;jettySize=auto;html=1;exitX=0;exitY=0.5;exitDx=0;exitDy=0;exitPerimeter=0;fontSize=12;startSize=8;endSize=8;endArrow=oval;endFill=1;" edge="1" parent="1" source="x61N2MSRTouaJFTVbICT-12">
          <mxGeometry relative="1" as="geometry">
            <mxPoint x="230.63634144176103" y="887.18184037642" as="targetPoint" />
            <Array as="points">
              <mxPoint x="231" y="822" />
            </Array>
          </mxGeometry>
        </mxCell>
        <mxCell id="x61N2MSRTouaJFTVbICT-37" value="ДА" style="edgeLabel;html=1;align=center;verticalAlign=middle;resizable=0;points=[];fontSize=12;" vertex="1" connectable="0" parent="x61N2MSRTouaJFTVbICT-36">
          <mxGeometry x="-0.4715" relative="1" as="geometry">
            <mxPoint as="offset" />
          </mxGeometry>
        </mxCell>
        <mxCell id="x61N2MSRTouaJFTVbICT-38" style="edgeStyle=none;curved=0;rounded=0;orthogonalLoop=1;jettySize=auto;html=1;exitX=1;exitY=0.5;exitDx=0;exitDy=0;exitPerimeter=0;fontSize=12;startSize=8;endSize=8;endArrow=oval;endFill=1;" edge="1" parent="1" source="x61N2MSRTouaJFTVbICT-12">
          <mxGeometry relative="1" as="geometry">
            <mxPoint x="597.1818625710225" y="535.181884765625" as="targetPoint" />
            <Array as="points">
              <mxPoint x="597" y="822" />
            </Array>
          </mxGeometry>
        </mxCell>
        <mxCell id="x61N2MSRTouaJFTVbICT-39" value="НЕТ" style="edgeLabel;html=1;align=center;verticalAlign=middle;resizable=0;points=[];fontSize=12;" vertex="1" connectable="0" parent="x61N2MSRTouaJFTVbICT-38">
          <mxGeometry x="-0.8587" y="3" relative="1" as="geometry">
            <mxPoint as="offset" />
          </mxGeometry>
        </mxCell>
        <mxCell id="x61N2MSRTouaJFTVbICT-12" value="Количество&amp;nbsp;&lt;div&gt;проголосовавших&amp;nbsp;&lt;div&gt;больше или равно 2/3 от всех&amp;nbsp;&lt;/div&gt;&lt;div&gt;проголосовавших?&lt;/div&gt;&lt;/div&gt;" style="strokeWidth=2;html=1;shape=mxgraph.flowchart.decision;whiteSpace=wrap;" vertex="1" parent="1">
          <mxGeometry x="289" y="756" width="211.25" height="131" as="geometry" />
        </mxCell>
        <mxCell id="x61N2MSRTouaJFTVbICT-15" style="edgeStyle=none;curved=1;rounded=0;orthogonalLoop=1;jettySize=auto;html=1;exitX=0.5;exitY=1;exitDx=0;exitDy=0;exitPerimeter=0;fontSize=12;startSize=8;endSize=8;" edge="1" parent="1">
          <mxGeometry relative="1" as="geometry">
            <mxPoint x="232" y="79" as="sourcePoint" />
            <mxPoint x="232" y="124" as="targetPoint" />
          </mxGeometry>
        </mxCell>
        <mxCell id="x61N2MSRTouaJFTVbICT-16" style="edgeStyle=none;curved=1;rounded=0;orthogonalLoop=1;jettySize=auto;html=1;exitX=0.5;exitY=1;exitDx=0;exitDy=0;entryX=0.5;entryY=0;entryDx=0;entryDy=0;entryPerimeter=0;fontSize=12;startSize=8;endSize=8;" edge="1" parent="1" source="x61N2MSRTouaJFTVbICT-8" target="x61N2MSRTouaJFTVbICT-5">
          <mxGeometry relative="1" as="geometry" />
        </mxCell>
        <mxCell id="x61N2MSRTouaJFTVbICT-17" value="Президент получает закон на подписание" style="rounded=1;whiteSpace=wrap;html=1;absoluteArcSize=1;arcSize=14;strokeWidth=2;" vertex="1" parent="1">
          <mxGeometry x="160.25" y="919" width="144.25" height="70" as="geometry" />
        </mxCell>
        <mxCell id="x61N2MSRTouaJFTVbICT-20" value="Завершение процесса принятия нового закона" style="strokeWidth=2;html=1;shape=mxgraph.flowchart.terminator;whiteSpace=wrap;" vertex="1" parent="1">
          <mxGeometry x="170.5" y="1040" width="127" height="60" as="geometry" />
        </mxCell>
        <mxCell id="x61N2MSRTouaJFTVbICT-21" value="Начало процесса принятия нового закона" style="strokeWidth=2;html=1;shape=mxgraph.flowchart.terminator;whiteSpace=wrap;" vertex="1" parent="1">
          <mxGeometry x="170.63" y="-98" width="123.5" height="60" as="geometry" />
        </mxCell>
        <mxCell id="x61N2MSRTouaJFTVbICT-22" style="edgeStyle=none;curved=0;rounded=0;orthogonalLoop=1;jettySize=auto;html=1;exitX=0;exitY=0.5;exitDx=0;exitDy=0;exitPerimeter=0;fontSize=12;startSize=8;endSize=8;entryX=0.5;entryY=0;entryDx=0;entryDy=0;" edge="1" parent="1" source="x61N2MSRTouaJFTVbICT-5" target="x61N2MSRTouaJFTVbICT-17">
          <mxGeometry relative="1" as="geometry">
            <mxPoint x="236" y="892" as="targetPoint" />
            <Array as="points">
              <mxPoint x="52" y="278" />
              <mxPoint x="56" y="765" />
              <mxPoint x="56" y="885" />
              <mxPoint x="232" y="885" />
            </Array>
          </mxGeometry>
        </mxCell>
        <mxCell id="x61N2MSRTouaJFTVbICT-24" value="ДА" style="edgeLabel;html=1;align=center;verticalAlign=middle;resizable=0;points=[];fontSize=12;" vertex="1" connectable="0" parent="x61N2MSRTouaJFTVbICT-22">
          <mxGeometry x="-0.9048" y="4" relative="1" as="geometry">
            <mxPoint as="offset" />
          </mxGeometry>
        </mxCell>
        <mxCell id="x61N2MSRTouaJFTVbICT-25" style="edgeStyle=none;curved=0;rounded=0;orthogonalLoop=1;jettySize=auto;html=1;exitX=1;exitY=0.5;exitDx=0;exitDy=0;exitPerimeter=0;fontSize=12;startSize=8;endSize=8;" edge="1" parent="1" source="x61N2MSRTouaJFTVbICT-5">
          <mxGeometry relative="1" as="geometry">
            <mxPoint x="379" y="364" as="targetPoint" />
            <Array as="points">
              <mxPoint x="379" y="278" />
            </Array>
          </mxGeometry>
        </mxCell>
        <mxCell id="x61N2MSRTouaJFTVbICT-26" value="НЕТ" style="edgeLabel;html=1;align=center;verticalAlign=middle;resizable=0;points=[];fontSize=12;" vertex="1" connectable="0" parent="x61N2MSRTouaJFTVbICT-25">
          <mxGeometry x="-0.6018" y="7" relative="1" as="geometry">
            <mxPoint x="6" y="7" as="offset" />
          </mxGeometry>
        </mxCell>
        <mxCell id="x61N2MSRTouaJFTVbICT-27" style="edgeStyle=none;curved=1;rounded=0;orthogonalLoop=1;jettySize=auto;html=1;exitX=0.5;exitY=1;exitDx=0;exitDy=0;entryX=0.5;entryY=0;entryDx=0;entryDy=0;entryPerimeter=0;fontSize=12;startSize=8;endSize=8;" edge="1" parent="1" source="x61N2MSRTouaJFTVbICT-6" target="x61N2MSRTouaJFTVbICT-10">
          <mxGeometry relative="1" as="geometry" />
        </mxCell>
        <mxCell id="x61N2MSRTouaJFTVbICT-34" style="edgeStyle=none;curved=1;rounded=0;orthogonalLoop=1;jettySize=auto;html=1;exitX=0;exitY=0.5;exitDx=0;exitDy=0;fontSize=12;startSize=8;endSize=8;endArrow=oval;endFill=1;" edge="1" parent="1" source="x61N2MSRTouaJFTVbICT-30">
          <mxGeometry relative="1" as="geometry">
            <mxPoint x="232.09097567471554" y="95.90909090909076" as="targetPoint" />
          </mxGeometry>
        </mxCell>
        <mxCell id="x61N2MSRTouaJFTVbICT-30" value="Госдума вносит закон изменения" style="rounded=1;whiteSpace=wrap;html=1;absoluteArcSize=1;arcSize=14;strokeWidth=2;" vertex="1" parent="1">
          <mxGeometry x="525" y="60" width="144.25" height="70" as="geometry" />
        </mxCell>
        <mxCell id="x61N2MSRTouaJFTVbICT-35" style="edgeStyle=none;curved=1;rounded=0;orthogonalLoop=1;jettySize=auto;html=1;exitX=0.5;exitY=1;exitDx=0;exitDy=0;entryX=0.5;entryY=0;entryDx=0;entryDy=0;entryPerimeter=0;fontSize=12;startSize=8;endSize=8;" edge="1" parent="1" source="x61N2MSRTouaJFTVbICT-11" target="x61N2MSRTouaJFTVbICT-12">
          <mxGeometry relative="1" as="geometry" />
        </mxCell>
        <mxCell id="x61N2MSRTouaJFTVbICT-40" style="edgeStyle=none;curved=1;rounded=0;orthogonalLoop=1;jettySize=auto;html=1;exitX=0.5;exitY=1;exitDx=0;exitDy=0;entryX=0.5;entryY=0;entryDx=0;entryDy=0;entryPerimeter=0;fontSize=12;startSize=8;endSize=8;" edge="1" parent="1" source="x61N2MSRTouaJFTVbICT-17" target="x61N2MSRTouaJFTVbICT-20">
          <mxGeometry relative="1" as="geometry" />
        </mxCell>
      </root>
    </mxGraphModel>
  </diagram>
</mxfile>
